<mxfile host="Electron" modified="2024-02-04T14:33:33.079Z" agent="Mozilla/5.0 (Macintosh; Intel Mac OS X 10_15_7) AppleWebKit/537.36 (KHTML, like Gecko) draw.io/22.1.16 Chrome/120.0.6099.109 Electron/28.1.0 Safari/537.36" etag="OsaFlWoke_GgR7vNfzbL" version="22.1.16" type="device">
  <diagram name="페이지-1" id="5VbwhguqlYxLoXo--oqA">
    <mxGraphModel dx="2613" dy="1522" grid="1" gridSize="10" guides="1" tooltips="1" connect="1" arrows="1" fold="1" page="1" pageScale="1" pageWidth="827" pageHeight="1169" math="0" shadow="0">
      <root>
        <mxCell id="0" />
        <mxCell id="1" parent="0" />
        <mxCell id="tBsH2bREpPu-yHkYEaON-2" value="" style="rounded=0;whiteSpace=wrap;html=1;" vertex="1" parent="1">
          <mxGeometry x="60" y="90" width="120" height="60" as="geometry" />
        </mxCell>
        <mxCell id="tBsH2bREpPu-yHkYEaON-3" value="해석당할 문자열을 저장" style="rounded=0;whiteSpace=wrap;html=1;" vertex="1" parent="1">
          <mxGeometry x="120" y="525" width="120" height="60" as="geometry" />
        </mxCell>
        <mxCell id="tBsH2bREpPu-yHkYEaON-4" value="" style="rhombus;whiteSpace=wrap;html=1;" vertex="1" parent="1">
          <mxGeometry x="220" y="80" width="80" height="80" as="geometry" />
        </mxCell>
        <mxCell id="tBsH2bREpPu-yHkYEaON-5" value="Vertical Container" style="swimlane;whiteSpace=wrap;html=1;" vertex="1" parent="1">
          <mxGeometry x="380" y="30" width="200" height="200" as="geometry" />
        </mxCell>
        <mxCell id="tBsH2bREpPu-yHkYEaON-6" value="N번 반복" style="swimlane;whiteSpace=wrap;html=1;" vertex="1" parent="1">
          <mxGeometry x="90" y="305" width="340" height="195" as="geometry" />
        </mxCell>
        <mxCell id="tBsH2bREpPu-yHkYEaON-1" value="문자열을 i번 칸에 저장" style="rounded=0;whiteSpace=wrap;html=1;" vertex="1" parent="tBsH2bREpPu-yHkYEaON-6">
          <mxGeometry x="30" y="50" width="120" height="60" as="geometry" />
        </mxCell>
        <mxCell id="tBsH2bREpPu-yHkYEaON-9" value="결과에 대한 문자열 저장" style="rounded=0;whiteSpace=wrap;html=1;" vertex="1" parent="1">
          <mxGeometry x="120" y="610" width="120" height="60" as="geometry" />
        </mxCell>
        <mxCell id="tBsH2bREpPu-yHkYEaON-10" value="N번 반복" style="swimlane;whiteSpace=wrap;html=1;" vertex="1" parent="1">
          <mxGeometry x="60" y="850" width="570" height="1090" as="geometry" />
        </mxCell>
        <mxCell id="tBsH2bREpPu-yHkYEaON-17" value="해석된 문자열의 길이만큼 반복" style="rounded=0;whiteSpace=wrap;html=1;shape=swimlane;fontStyle=1;startSize=23;" vertex="1" parent="tBsH2bREpPu-yHkYEaON-10">
          <mxGeometry x="20" y="180" width="380" height="400" as="geometry" />
        </mxCell>
        <mxCell id="tBsH2bREpPu-yHkYEaON-24" value="해석된 문자, 암호문 문자 정리" style="whiteSpace=wrap;html=1;" vertex="1" parent="tBsH2bREpPu-yHkYEaON-17">
          <mxGeometry x="40" y="60" width="160" height="60" as="geometry" />
        </mxCell>
        <mxCell id="tBsH2bREpPu-yHkYEaON-25" value="임시 암호문의 암호문에 대한 해석문자 저장 리스트가 있고 지금 해석문자와 다른 문자인가" style="rhombus;whiteSpace=wrap;html=1;" vertex="1" parent="tBsH2bREpPu-yHkYEaON-17">
          <mxGeometry x="40" y="139" width="190" height="80" as="geometry" />
        </mxCell>
        <mxCell id="tBsH2bREpPu-yHkYEaON-27" value="해석문자 에 대한 암호문자 저장 리스트가 이미 있고 지금 암호문자가 아닌가" style="rhombus;whiteSpace=wrap;html=1;" vertex="1" parent="tBsH2bREpPu-yHkYEaON-17">
          <mxGeometry x="40" y="230" width="190" height="80" as="geometry" />
        </mxCell>
        <mxCell id="tBsH2bREpPu-yHkYEaON-28" value="break" style="rounded=0;whiteSpace=wrap;html=1;" vertex="1" parent="tBsH2bREpPu-yHkYEaON-17">
          <mxGeometry x="260" y="250" width="120" height="60" as="geometry" />
        </mxCell>
        <mxCell id="tBsH2bREpPu-yHkYEaON-29" value="break" style="rounded=0;whiteSpace=wrap;html=1;" vertex="1" parent="tBsH2bREpPu-yHkYEaON-17">
          <mxGeometry x="260" y="149" width="120" height="60" as="geometry" />
        </mxCell>
        <mxCell id="tBsH2bREpPu-yHkYEaON-21" value="yes" style="edgeStyle=orthogonalEdgeStyle;rounded=0;orthogonalLoop=1;jettySize=auto;html=1;" edge="1" parent="tBsH2bREpPu-yHkYEaON-10" source="tBsH2bREpPu-yHkYEaON-19" target="tBsH2bREpPu-yHkYEaON-20">
          <mxGeometry relative="1" as="geometry" />
        </mxCell>
        <mxCell id="tBsH2bREpPu-yHkYEaON-19" value="해석된 문자열과 암호문의 길이가 다른가 ?" style="rhombus;whiteSpace=wrap;html=1;" vertex="1" parent="tBsH2bREpPu-yHkYEaON-10">
          <mxGeometry x="20" y="30" width="80" height="80" as="geometry" />
        </mxCell>
        <mxCell id="tBsH2bREpPu-yHkYEaON-20" value="continue" style="whiteSpace=wrap;html=1;" vertex="1" parent="tBsH2bREpPu-yHkYEaON-10">
          <mxGeometry x="160" y="40" width="120" height="60" as="geometry" />
        </mxCell>
        <mxCell id="tBsH2bREpPu-yHkYEaON-22" value="임시로 바뀔 문자가 어떤 기존 문자를 바꾸는지 저장할 리스트 생성" style="rounded=0;whiteSpace=wrap;html=1;" vertex="1" parent="tBsH2bREpPu-yHkYEaON-10">
          <mxGeometry x="330" y="110" width="220" height="60" as="geometry" />
        </mxCell>
        <mxCell id="tBsH2bREpPu-yHkYEaON-23" value="임시로 어떤 기존 문자가 어떤 문자로 바뀔지를 인덱스에 저장하는 리스트 생성" style="rounded=0;whiteSpace=wrap;html=1;" vertex="1" parent="tBsH2bREpPu-yHkYEaON-10">
          <mxGeometry x="330" y="40" width="220" height="60" as="geometry" />
        </mxCell>
        <mxCell id="tBsH2bREpPu-yHkYEaON-37" style="edgeStyle=orthogonalEdgeStyle;rounded=0;orthogonalLoop=1;jettySize=auto;html=1;exitX=1;exitY=0.5;exitDx=0;exitDy=0;entryX=0;entryY=0.5;entryDx=0;entryDy=0;" edge="1" parent="tBsH2bREpPu-yHkYEaON-10" source="tBsH2bREpPu-yHkYEaON-32" target="tBsH2bREpPu-yHkYEaON-36">
          <mxGeometry relative="1" as="geometry" />
        </mxCell>
        <mxCell id="tBsH2bREpPu-yHkYEaON-38" value="no" style="edgeLabel;html=1;align=center;verticalAlign=middle;resizable=0;points=[];" vertex="1" connectable="0" parent="tBsH2bREpPu-yHkYEaON-37">
          <mxGeometry x="-0.2568" y="1" relative="1" as="geometry">
            <mxPoint as="offset" />
          </mxGeometry>
        </mxCell>
        <mxCell id="tBsH2bREpPu-yHkYEaON-32" value="break된 것이 아닌가" style="rounded=0;whiteSpace=wrap;html=1;shape=rhombus;perimeter=rhombusPerimeter;" vertex="1" parent="tBsH2bREpPu-yHkYEaON-10">
          <mxGeometry x="40" y="620" width="120" height="60" as="geometry" />
        </mxCell>
        <mxCell id="tBsH2bREpPu-yHkYEaON-33" value="길이만큼 반복" style="swimlane;whiteSpace=wrap;html=1;" vertex="1" parent="tBsH2bREpPu-yHkYEaON-10">
          <mxGeometry x="40" y="704" width="426" height="346" as="geometry" />
        </mxCell>
        <mxCell id="tBsH2bREpPu-yHkYEaON-34" value="임시 암호문 해석문자에 대한 해석문자를 저장해놓은 리스트의 값이 공통문자와 같은 값이 아닌가?" style="rhombus;whiteSpace=wrap;html=1;" vertex="1" parent="tBsH2bREpPu-yHkYEaON-33">
          <mxGeometry x="35" y="56" width="220" height="70" as="geometry" />
        </mxCell>
        <mxCell id="tBsH2bREpPu-yHkYEaON-35" value="임시 해석문자에 대한 암호문을 저장해놓은 리스트의 값이 공통문자와 전체 범위에서 의 저장값과 다른가?" style="rhombus;whiteSpace=wrap;html=1;" vertex="1" parent="tBsH2bREpPu-yHkYEaON-33">
          <mxGeometry x="35" y="146" width="220" height="70" as="geometry" />
        </mxCell>
        <mxCell id="tBsH2bREpPu-yHkYEaON-39" value="해당 값 ? 로 초기화" style="rounded=0;whiteSpace=wrap;html=1;" vertex="1" parent="tBsH2bREpPu-yHkYEaON-33">
          <mxGeometry x="280" y="116" width="120" height="60" as="geometry" />
        </mxCell>
        <mxCell id="tBsH2bREpPu-yHkYEaON-36" value="continue" style="rounded=0;whiteSpace=wrap;html=1;" vertex="1" parent="tBsH2bREpPu-yHkYEaON-10">
          <mxGeometry x="234" y="620" width="120" height="60" as="geometry" />
        </mxCell>
        <mxCell id="tBsH2bREpPu-yHkYEaON-12" value="어떤 기존 문자가 어떤 문자로 바뀔지를 인덱스에 저장하는 리스트 생성" style="rounded=0;whiteSpace=wrap;html=1;" vertex="1" parent="1">
          <mxGeometry x="120" y="700" width="190" height="60" as="geometry" />
        </mxCell>
        <mxCell id="tBsH2bREpPu-yHkYEaON-16" value="바뀔 문자가 어떤 기존 문자를 바꾸는지 저장할 리스트 생성" style="rounded=0;whiteSpace=wrap;html=1;" vertex="1" parent="1">
          <mxGeometry x="120" y="770" width="190" height="60" as="geometry" />
        </mxCell>
        <mxCell id="tBsH2bREpPu-yHkYEaON-30" value="두 리스트의 서로의 값 저장" style="whiteSpace=wrap;html=1;" vertex="1" parent="1">
          <mxGeometry x="140" y="1360" width="120" height="60" as="geometry" />
        </mxCell>
        <mxCell id="tBsH2bREpPu-yHkYEaON-31" value="&lt;h1&gt;[인덱스] = 문자&lt;/h1&gt;&lt;p&gt;저장하면됨&lt;/p&gt;" style="text;html=1;strokeColor=none;fillColor=none;spacing=5;spacingTop=-20;whiteSpace=wrap;overflow=hidden;rounded=0;" vertex="1" parent="1">
          <mxGeometry x="670" y="1149" width="190" height="120" as="geometry" />
        </mxCell>
      </root>
    </mxGraphModel>
  </diagram>
</mxfile>
